<svg width="20" height="21" viewBox="0 0 20 21" fill="none" xmlns="http://www.w3.org/2000/svg">
<g id=":facebook2">
<path id="Vector" d="M17 1.08618H3C1.9 1.08618 1 1.98618 1 3.08618V17.0862C1 18.1872 1.9 19.0862 3 19.0862H10V12.0862H8V9.61118H10V7.56118C10 5.39718 11.212 3.87718 13.766 3.87718L15.569 3.87918V6.48418H14.372C13.378 6.48418 13 7.23018 13 7.92218V9.61218H15.568L15 12.0862H13V19.0862H17C18.1 19.0862 19 18.1872 19 17.0862V3.08618C19 1.98618 18.1 1.08618 17 1.08618Z" fill="white"/>
</g>
</svg>
