<svg width="15" height="16" viewBox="0 0 15 16" fill="none" xmlns="http://www.w3.org/2000/svg">
<g id="fluent:ios-arrow &#209;&#129;&#209;&#130;&#209;&#128;&#209;&#150;&#208;&#187;&#208;&#186;&#208;&#176;">
<path id="Vector" d="M12.3192 8.00268L7.00866 13.4541C6.96494 13.498 6.93037 13.5502 6.90694 13.6076C6.88351 13.665 6.87169 13.7264 6.87217 13.7884C6.87265 13.8504 6.88542 13.9116 6.90974 13.9687C6.93405 14.0257 6.96943 14.0773 7.01383 14.1205C7.05823 14.1638 7.11076 14.1978 7.16839 14.2206C7.22602 14.2434 7.2876 14.2546 7.34957 14.2534C7.41154 14.2523 7.47267 14.2389 7.52942 14.2139C7.58616 14.189 7.6374 14.1531 7.68017 14.1082L13.3084 8.33011C13.3936 8.24264 13.4413 8.1254 13.4413 8.00331C13.4414 7.88121 13.3938 7.76391 13.3088 7.67636L7.68697 1.89198C7.64425 1.84707 7.59305 1.81108 7.53633 1.78609C7.47961 1.7611 7.4185 1.74761 7.35653 1.7464C7.29456 1.74518 7.23297 1.75627 7.17531 1.77902C7.11766 1.80177 7.06509 1.83572 7.02064 1.87892C6.97619 1.92212 6.94076 1.9737 6.91638 2.03069C6.892 2.08767 6.87916 2.14893 6.87862 2.2109C6.87807 2.27288 6.88981 2.33435 6.91318 2.39176C6.93654 2.44917 6.97106 2.50137 7.01473 2.54535L12.3192 8.00268Z" fill="#FDF9FA"/>
</g>
</svg>
