<svg width="16" height="16" viewBox="0 0 16 16" fill="none" xmlns="http://www.w3.org/2000/svg">
<g id="fluent:ios-arrow &#209;&#129;&#209;&#130;&#209;&#128;&#209;&#150;&#208;&#187;&#208;&#186;&#208;&#176;">
<path id="Vector" d="M12.8192 8.00261L7.50866 13.454C7.46494 13.498 7.43037 13.5501 7.40694 13.6075C7.38351 13.6649 7.37169 13.7263 7.37217 13.7883C7.37265 13.8503 7.38542 13.9116 7.40974 13.9686C7.43405 14.0256 7.46943 14.0772 7.51383 14.1205C7.55823 14.1637 7.61076 14.1977 7.66839 14.2205C7.72602 14.2434 7.7876 14.2545 7.84957 14.2534C7.91154 14.2522 7.97267 14.2388 8.02942 14.2139C8.08616 14.1889 8.1374 14.153 8.18017 14.1082L13.8084 8.33003C13.8936 8.24257 13.9413 8.12532 13.9413 8.00323C13.9414 7.88114 13.8938 7.76384 13.8088 7.67628L8.18697 1.8919C8.14425 1.847 8.09305 1.81101 8.03633 1.78602C7.97961 1.76103 7.9185 1.74754 7.85653 1.74633C7.79456 1.74511 7.73297 1.7562 7.67531 1.77895C7.61766 1.80169 7.56509 1.83565 7.52064 1.87885C7.47619 1.92205 7.44076 1.97363 7.41638 2.03061C7.392 2.0876 7.37916 2.14885 7.37862 2.21083C7.37807 2.27281 7.38981 2.33428 7.41318 2.39169C7.43654 2.4491 7.47106 2.5013 7.51473 2.54528L12.8192 8.00261Z" fill="#68686A"/>
</g>
</svg>
