<svg width="24" height="25" viewBox="0 0 24 25" fill="none" xmlns="http://www.w3.org/2000/svg">
<g clip-path="url(#clip0_41_2829)">
<path d="M23.8045 7.15627C23.7357 7.05857 23.6445 6.97883 23.5384 6.92375C23.4324 6.86868 23.3147 6.8399 23.1952 6.83982H7.27795L6.07308 2.68482C5.60058 1.0487 4.4778 0.87207 4.0173 0.87207H0.804679C0.392906 0.87207 0.059906 1.20545 0.059906 1.61682C0.059906 2.0282 0.393281 2.36155 0.804656 2.36155H4.01691C4.11853 2.36155 4.42866 2.36155 4.64018 3.09242L8.78506 18.3253C8.87505 18.6467 9.16793 18.8686 9.50203 18.8686H19.6263C19.9406 18.8686 20.221 18.6718 20.3272 18.3759L23.8957 7.83652C23.9778 7.60815 23.9437 7.3539 23.8046 7.15627H23.8045ZM19.1022 17.3796H10.0673L7.69657 8.3297H22.1363L19.1022 17.3796ZM17.6251 20.3781C16.5893 20.3781 15.7501 21.2173 15.7501 22.2531C15.7501 23.2888 16.5893 24.1281 17.6251 24.1281C18.6608 24.1281 19.5001 23.2888 19.5001 22.2531C19.5001 21.2173 18.6608 20.3781 17.6251 20.3781ZM10.8751 20.3781C9.83932 20.3781 9.00007 21.2173 9.00007 22.2531C9.00007 23.2888 9.83932 24.1281 10.8751 24.1281C11.9108 24.1281 12.7501 23.2888 12.7501 22.2531C12.7501 21.2173 11.9108 20.3781 10.8751 20.3781Z" fill="#FDF9FA"/>
</g>
<defs>
<clipPath id="clip0_41_2829">
<rect width="24" height="24" fill="white" transform="translate(0 0.5)"/>
</clipPath>
</defs>
</svg>
