<svg width="24" height="24" viewBox="0 0 24 24" fill="none" xmlns="http://www.w3.org/2000/svg">
<g id="basket2" clip-path="url(#clip0_464_441)">
<path id="Vector" d="M23.8045 6.65627C23.7357 6.55857 23.6445 6.47883 23.5384 6.42375C23.4324 6.36868 23.3147 6.3399 23.1952 6.33982H7.27795L6.07308 2.18482C5.60058 0.548695 4.4778 0.37207 4.0173 0.37207H0.804679C0.392906 0.37207 0.059906 0.705445 0.059906 1.11682C0.059906 1.5282 0.393281 1.86155 0.804656 1.86155H4.01691C4.11853 1.86155 4.42866 1.86155 4.64018 2.59242L8.78506 17.8253C8.87505 18.1467 9.16793 18.3686 9.50203 18.3686H19.6263C19.9406 18.3686 20.221 18.1718 20.3272 17.8759L23.8957 7.33652C23.9778 7.10815 23.9437 6.8539 23.8046 6.65627H23.8045ZM19.1022 16.8796H10.0673L7.69657 7.8297H22.1363L19.1022 16.8796ZM17.6251 19.8781C16.5893 19.8781 15.7501 20.7173 15.7501 21.7531C15.7501 22.7888 16.5893 23.6281 17.6251 23.6281C18.6608 23.6281 19.5001 22.7888 19.5001 21.7531C19.5001 20.7173 18.6608 19.8781 17.6251 19.8781ZM10.8751 19.8781C9.83932 19.8781 9.00007 20.7173 9.00007 21.7531C9.00007 22.7888 9.83932 23.6281 10.8751 23.6281C11.9108 23.6281 12.7501 22.7888 12.7501 21.7531C12.7501 20.7173 11.9108 19.8781 10.8751 19.8781Z" fill="#E12B36"/>
</g>
<defs>
<clipPath id="clip0_464_441">
<rect width="24" height="24" fill="white"/>
</clipPath>
</defs>
</svg>
