<svg width="24" height="24" viewBox="0 0 24 24" fill="none" xmlns="http://www.w3.org/2000/svg">
<g id="basket2" clip-path="url(#clip0_464_169)">
<path id="Vector" d="M23.8046 6.65627C23.7358 6.55857 23.6445 6.47883 23.5385 6.42375C23.4324 6.36868 23.3147 6.3399 23.1952 6.33982H7.27798L6.07311 2.18482C5.60061 0.548695 4.47784 0.37207 4.01733 0.37207H0.80471C0.392937 0.37207 0.0599365 0.705445 0.0599365 1.11682C0.0599365 1.5282 0.393312 1.86155 0.804687 1.86155H4.01694C4.11856 1.86155 4.42869 1.86155 4.64021 2.59242L8.78509 17.8253C8.87508 18.1467 9.16796 18.3686 9.50206 18.3686H19.6263C19.9406 18.3686 20.2211 18.1718 20.3272 17.8759L23.8957 7.33652C23.9778 7.10815 23.9437 6.8539 23.8046 6.65627H23.8046ZM19.1022 16.8796H10.0674L7.6966 7.8297H22.1363L19.1022 16.8796ZM17.6251 19.8781C16.5893 19.8781 15.7501 20.7173 15.7501 21.7531C15.7501 22.7888 16.5893 23.6281 17.6251 23.6281C18.6609 23.6281 19.5001 22.7888 19.5001 21.7531C19.5001 20.7173 18.6609 19.8781 17.6251 19.8781ZM10.8751 19.8781C9.83935 19.8781 9.0001 20.7173 9.0001 21.7531C9.0001 22.7888 9.83935 23.6281 10.8751 23.6281C11.9109 23.6281 12.7501 22.7888 12.7501 21.7531C12.7501 20.7173 11.9109 19.8781 10.8751 19.8781Z" fill="#68686A"/>
</g>
<defs>
<clipPath id="clip0_464_169">
<rect width="24" height="24" fill="white"/>
</clipPath>
</defs>
</svg>
