<svg width="24" height="25" viewBox="0 0 24 25" fill="none" xmlns="http://www.w3.org/2000/svg">
<g id="ic:baseline-telegram">
<path id="Vector" d="M12 2.08618C6.48 2.08618 2 6.56618 2 12.0862C2 17.6062 6.48 22.0862 12 22.0862C17.52 22.0862 22 17.6062 22 12.0862C22 6.56618 17.52 2.08618 12 2.08618ZM16.64 8.88618C16.49 10.4662 15.84 14.3062 15.51 16.0762C15.37 16.8262 15.09 17.0762 14.83 17.1062C14.25 17.1562 13.81 16.7262 13.25 16.3562C12.37 15.7762 11.87 15.4162 11.02 14.8562C10.03 14.2062 10.67 13.8462 11.24 13.2662C11.39 13.1162 13.95 10.7862 14 10.5762C14.0069 10.5444 14.006 10.5114 13.9973 10.48C13.9886 10.4486 13.9724 10.4198 13.95 10.3962C13.89 10.3462 13.81 10.3662 13.74 10.3762C13.65 10.3962 12.25 11.3262 9.52 13.1662C9.12 13.4362 8.76 13.5762 8.44 13.5662C8.08 13.5562 7.4 13.3662 6.89 13.1962C6.26 12.9962 5.77 12.8862 5.81 12.5362C5.83 12.3562 6.08 12.1762 6.55 11.9862C9.47 10.7162 11.41 9.87618 12.38 9.47618C15.16 8.31618 15.73 8.11618 16.11 8.11618C16.19 8.11618 16.38 8.13618 16.5 8.23618C16.6 8.31618 16.63 8.42618 16.64 8.50618C16.63 8.56618 16.65 8.74618 16.64 8.88618Z" fill="white"/>
</g>
</svg>
