<svg width="24" height="24" viewBox="0 0 24 24" fill="none" xmlns="http://www.w3.org/2000/svg">
<g id="like" clip-path="url(#clip0_464_436)">
<path id="Vector" d="M11.4673 5.05481L11.928 6.14669L12.3887 5.05481C13.2851 2.93018 15.3253 1.46044 17.6832 1.46044C20.8204 1.46044 23.1652 4.15136 23.4631 7.50531L23.4653 7.53078L23.4696 7.5527C23.4696 7.55258 23.4697 7.55332 23.4698 7.55366C23.4698 7.55397 23.4698 7.55385 23.4699 7.55455L23.4699 7.55461L23.4728 7.57323C23.4755 7.5923 23.4797 7.62457 23.484 7.66968C23.4924 7.75989 23.5012 7.9016 23.4992 8.09215C23.4954 8.47301 23.4487 9.05043 23.271 9.80331L23.271 9.80333C22.7884 11.8478 21.6521 13.6717 20.1122 15.0679C20.1117 15.0683 20.1112 15.0687 20.1108 15.0692L11.9309 22.3673L3.88899 15.0689L3.88868 15.0686C2.34815 13.6728 1.2113 11.8479 0.728547 9.80285L0.728542 9.80283C0.550788 9.04995 0.504167 8.47253 0.500275 8.09167C0.498327 7.90112 0.507073 7.75941 0.515557 7.6692C0.5198 7.62409 0.52398 7.59183 0.52673 7.57275L0.529614 7.55407C0.529688 7.55363 0.52975 7.55327 0.5298 7.55298L0.534179 7.5303L0.536441 7.50483C0.834307 4.15088 3.17914 1.45996 6.31632 1.45996C8.66142 1.45996 10.5653 2.91685 11.4673 5.05481Z" fill="#E12B36" stroke="#68686A"/>
<path id="Vector_2" d="M2.88002 8.67746C2.61458 8.67746 2.40002 8.4629 2.40002 8.19746C2.40002 5.55074 4.5533 3.39746 7.20002 3.39746C7.46546 3.39746 7.68002 3.61202 7.68002 3.87746C7.68002 4.1429 7.46546 4.35746 7.20002 4.35746C5.08274 4.35746 3.36002 6.08018 3.36002 8.19746C3.36002 8.4629 3.14546 8.67746 2.88002 8.67746Z" fill="#D9D9D9"/>
</g>
<defs>
<clipPath id="clip0_464_436">
<rect width="24" height="24" fill="white"/>
</clipPath>
</defs>
</svg>
