<svg width="21" height="20" viewBox="0 0 21 20" fill="none" xmlns="http://www.w3.org/2000/svg">
<g id="phone 2">
<path id="Vector" d="M9.38683 5.19994L6.56766 1.94578C6.24266 1.57078 5.64683 1.57244 5.26933 1.95078L2.95099 4.27328C2.26099 4.96411 2.06349 5.98994 2.46266 6.81244C4.84734 11.7499 8.82937 15.7375 13.7635 18.1291C14.5852 18.5283 15.6102 18.3308 16.3002 17.6399L18.6402 15.2958C19.0193 14.9166 19.0202 14.3174 18.6418 13.9924L15.3752 11.1883C15.0335 10.8949 14.5027 10.9333 14.1602 11.2766L13.0235 12.4149C12.9653 12.4759 12.8887 12.5161 12.8055 12.5294C12.7222 12.5426 12.6369 12.5282 12.5627 12.4883C10.7047 11.4184 9.16349 9.87513 8.09599 8.01578C8.05602 7.9414 8.04154 7.85597 8.05479 7.77257C8.06803 7.68918 8.10827 7.61244 8.16933 7.55411L9.30266 6.41994C9.646 6.07494 9.68349 5.54244 9.38683 5.19994Z" stroke="#FDF9FA" stroke-linecap="round" stroke-linejoin="round"/>
</g>
</svg>
