<svg width="24" height="25" viewBox="0 0 24 25" fill="none" xmlns="http://www.w3.org/2000/svg">
<g id="ri:instagram2">
<path id="Vector" d="M13.028 2.08717C13.7577 2.08437 14.4874 2.0917 15.217 2.10917L15.411 2.11617C15.635 2.12417 15.856 2.13417 16.123 2.14617C17.187 2.19617 17.913 2.36417 18.55 2.61117C19.21 2.86517 19.766 3.20917 20.322 3.76517C20.8303 4.26477 21.2238 4.86911 21.475 5.53617C21.722 6.17317 21.89 6.90017 21.94 7.96417C21.952 8.23017 21.962 8.45217 21.97 8.67617L21.976 8.87017C21.9937 9.59936 22.0014 10.3288 21.999 11.0582L22 11.8042V13.1142C22.0024 13.8439 21.9948 14.5736 21.977 15.3032L21.971 15.4972C21.963 15.7212 21.953 15.9422 21.941 16.2092C21.891 17.2732 21.721 17.9992 21.475 18.6362C21.2246 19.3039 20.8311 19.9088 20.322 20.4082C19.8219 20.9165 19.2173 21.3099 18.55 21.5612C17.913 21.8082 17.187 21.9762 16.123 22.0262C15.856 22.0382 15.635 22.0482 15.411 22.0562L15.217 22.0622C14.4874 22.0799 13.7577 22.0876 13.028 22.0852L12.282 22.0862H10.973C10.2432 22.0886 9.51349 22.081 8.78397 22.0632L8.58997 22.0572C8.35258 22.0486 8.11524 22.0386 7.87797 22.0272C6.81397 21.9772 6.08797 21.8072 5.44997 21.5612C4.78265 21.3105 4.1782 20.917 3.67897 20.4082C3.17001 19.9085 2.77619 19.3037 2.52497 18.6362C2.27797 17.9992 2.10997 17.2732 2.05997 16.2092C2.04883 15.9719 2.03883 15.7345 2.02997 15.4972L2.02497 15.3032C2.00653 14.5737 1.9982 13.8439 1.99997 13.1142V11.0582C1.99718 10.3288 2.00451 9.59936 2.02197 8.87017L2.02897 8.67617C2.03697 8.45217 2.04697 8.23017 2.05897 7.96417C2.10897 6.89917 2.27697 6.17417 2.52397 5.53617C2.77534 4.86879 3.16993 4.26461 3.67997 3.76617C4.17886 3.25692 4.78293 2.86274 5.44997 2.61117C6.08797 2.36417 6.81297 2.19617 7.87797 2.14617L8.58997 2.11617L8.78397 2.11117C9.51315 2.09274 10.2426 2.08441 10.972 2.08617L13.028 2.08717ZM12 7.08717C11.3375 7.0778 10.6797 7.20019 10.0649 7.44724C9.45016 7.69428 8.89061 8.06105 8.41881 8.52622C7.94701 8.9914 7.57237 9.54571 7.31665 10.1569C7.06094 10.7682 6.92926 11.4241 6.92926 12.0867C6.92926 12.7492 7.06094 13.4052 7.31665 14.0164C7.57237 14.6276 7.94701 15.1819 8.41881 15.6471C8.89061 16.1123 9.45016 16.4791 10.0649 16.7261C10.6797 16.9731 11.3375 17.0955 12 17.0862C13.326 17.0862 14.5978 16.5594 15.5355 15.6217C16.4732 14.684 17 13.4123 17 12.0862C17 10.7601 16.4732 9.48832 15.5355 8.55063C14.5978 7.61295 13.326 7.08717 12 7.08717ZM12 9.08717C12.3985 9.07983 12.7944 9.15197 13.1648 9.29938C13.5351 9.44678 13.8723 9.66651 14.1567 9.94571C14.4412 10.2249 14.6671 10.558 14.8214 10.9255C14.9757 11.293 15.0552 11.6876 15.0552 12.0862C15.0553 12.4847 14.9759 12.8793 14.8218 13.2469C14.6677 13.6144 14.4418 13.9476 14.1575 14.2269C13.8731 14.5062 13.536 14.726 13.1657 14.8736C12.7954 15.0211 12.3995 15.0934 12.001 15.0862C11.2053 15.0862 10.4423 14.7701 9.87965 14.2075C9.31704 13.6449 9.00097 12.8818 9.00097 12.0862C9.00097 11.2905 9.31704 10.5275 9.87965 9.96485C10.4423 9.40224 11.2053 9.08617 12.001 9.08617L12 9.08717ZM17.25 5.58717C16.9274 5.60008 16.6223 5.73732 16.3986 5.97014C16.1749 6.20296 16.05 6.5133 16.05 6.83617C16.05 7.15903 16.1749 7.46938 16.3986 7.7022C16.6223 7.93502 16.9274 8.07226 17.25 8.08517C17.5815 8.08517 17.8994 7.95347 18.1339 7.71905C18.3683 7.48463 18.5 7.16669 18.5 6.83517C18.5 6.50365 18.3683 6.18571 18.1339 5.95128C17.8994 5.71686 17.5815 5.58517 17.25 5.58517V5.58717Z" fill="#FDF9FA"/>
</g>
</svg>
