<svg width="24" height="25" viewBox="0 0 24 25" fill="none" xmlns="http://www.w3.org/2000/svg">
<g id="ri:messenger-fill">
<path id="Vector" d="M12.001 2.08618C17.634 2.08618 22.001 6.21318 22.001 11.7862C22.001 17.3592 17.634 21.4862 12.001 21.4862C11.0231 21.4887 10.0494 21.3595 9.10598 21.1022C8.92878 21.0535 8.74021 21.0672 8.57198 21.1412L6.58698 22.0172C6.46711 22.0702 6.33606 22.0929 6.20535 22.0833C6.07464 22.0738 5.94828 22.0323 5.83738 21.9625C5.72647 21.8926 5.63442 21.7966 5.56931 21.6829C5.5042 21.5692 5.46803 21.4412 5.46398 21.3102L5.40998 19.5302C5.40625 19.4219 5.38047 19.3155 5.33422 19.2175C5.28796 19.1195 5.22221 19.0319 5.14098 18.9602C3.19598 17.2202 2.00098 14.7022 2.00098 11.7862C2.00098 6.21318 6.36698 2.08618 12.001 2.08618ZM5.99598 14.6232C5.71398 15.0702 6.26398 15.5742 6.68498 15.2542L9.83998 12.8602C9.9441 12.7816 10.071 12.7391 10.2015 12.7391C10.3319 12.7391 10.4589 12.7816 10.563 12.8602L12.899 14.6102C13.0648 14.7347 13.2546 14.8235 13.4564 14.8709C13.6583 14.9184 13.8678 14.9235 14.0717 14.8859C14.2756 14.8483 14.4695 14.7689 14.6411 14.6526C14.8128 14.5363 14.9585 14.3856 15.069 14.2102L18.006 9.55018C18.288 9.10218 17.738 8.59818 17.317 8.91718L14.162 11.3132C14.0578 11.3918 13.9309 11.4343 13.8005 11.4343C13.67 11.4343 13.5431 11.3918 13.439 11.3132L11.102 9.56318C10.9362 9.43883 10.7465 9.35018 10.5447 9.30282C10.343 9.25545 10.1336 9.2504 9.92984 9.28798C9.72605 9.32557 9.53226 9.40496 9.36069 9.52117C9.18912 9.63738 9.04349 9.78788 8.93298 9.96318L5.99598 14.6232Z" fill="white"/>
</g>
</svg>
