<svg width="24" height="24" viewBox="0 0 24 24" fill="none" xmlns="http://www.w3.org/2000/svg">
<g id="&#208;&#178;&#208;&#176;&#208;&#179;&#208;&#184;" clip-path="url(#clip0_464_439)">
<path id="Vector" d="M24.0368 13.4394C24.0342 13.4182 24.0389 13.3977 24.0334 13.3765L24.0122 13.3169C24.0103 13.3124 24.0092 13.3077 24.0073 13.3032L20.6843 4.00082H21.5717C21.8484 4.00082 22.0725 3.77712 22.0725 3.50064C22.0725 3.22416 21.8484 3.00046 21.5717 3.00046H13.9859C13.8037 2.30093 13.2549 1.7531 12.5541 1.57127V0.500183C12.5541 0.223704 12.33 0 12.0531 0C11.7761 0 11.552 0.223704 11.552 0.500183V1.57127C10.8512 1.7531 10.3024 2.30093 10.1203 3.00046H2.53445C2.25748 3.00046 2.03359 3.22416 2.03359 3.50064C2.03359 3.77712 2.25748 4.00082 2.53445 4.00082H3.37199L0.0633453 13.3037C0.061633 13.3077 0.0605628 13.312 0.0588504 13.3161L0.0374463 13.3765C0.0318812 13.3977 0.0365902 13.4184 0.0340217 13.4396C0.0312391 13.4611 0.0211792 13.4802 0.0211792 13.5024C0.0211792 15.9843 2.04387 18.0034 4.53017 18.0034C7.01647 18.0034 9.03894 15.9843 9.03894 13.5024C9.03894 13.4802 9.02888 13.4609 9.0261 13.4394C9.02353 13.4182 9.02824 13.3977 9.02268 13.3765L9.00127 13.3167C8.99956 13.3122 8.99849 13.3077 8.99656 13.3032L5.67358 4.00082H10.1203C10.3024 4.70035 10.8512 5.24818 11.552 5.43001V20.4994H8.76733C8.11964 20.4994 7.54622 20.9115 7.35594 21.4878L6.5824 23.3041C6.51647 23.4588 6.53252 23.6357 6.62542 23.7759C6.71852 23.9161 6.87499 24 7.04323 24H17.0629C17.2312 24 17.3876 23.9161 17.4807 23.7759C17.5736 23.6357 17.5899 23.4588 17.5237 23.3041L16.7643 21.5254C16.5599 20.9115 15.9865 20.4994 15.3388 20.4994H12.5541V5.43001C13.2549 5.24818 13.8037 4.70035 13.9859 4.00082H18.3827L15.074 13.3037C15.0723 13.3077 15.0713 13.312 15.0698 13.3161L15.0481 13.3765C15.0426 13.3977 15.0475 13.4184 15.0447 13.4396C15.0419 13.4611 15.0321 13.4802 15.0321 13.5024C15.0321 15.9843 17.0546 18.0034 19.5409 18.0034C22.0272 18.0034 24.0496 15.9843 24.0496 13.5024C24.0496 13.4802 24.0398 13.4609 24.0368 13.4394ZM4.53017 17.003C2.76647 17.003 1.30264 15.6967 1.05885 14.0026H8.00127C7.75748 15.6967 6.29387 17.003 4.53017 17.003ZM7.82469 13.0024H1.23436L4.50256 4.00082H4.5413L7.82469 13.0024ZM15.8285 21.8794L16.3054 22.9999H7.80007L8.29173 21.8418C8.36022 21.6374 8.55157 21.4995 8.76733 21.4995H15.3388C15.5546 21.4995 15.7459 21.6374 15.8285 21.8794ZM12.0531 4.50079C11.5008 4.50079 11.0511 4.05189 11.0511 3.50064C11.0511 2.94918 11.5008 2.50049 12.0531 2.50049C12.6053 2.50049 13.055 2.94918 13.055 3.50064C13.055 4.05189 12.6053 4.50079 12.0531 4.50079ZM19.5135 4.00082H19.552L22.8354 13.0024H16.2453L19.5135 4.00082ZM19.5409 17.003C17.7772 17.003 16.3133 15.6967 16.0698 14.0026H23.012C22.7684 15.6967 21.3046 17.003 19.5409 17.003Z" fill="#E12B36"/>
</g>
<defs>
<clipPath id="clip0_464_439">
<rect width="24" height="24" fill="white"/>
</clipPath>
</defs>
</svg>
