<svg width="25" height="24" viewBox="0 0 25 24" fill="none" xmlns="http://www.w3.org/2000/svg">
<g id="ion:search-outline">
<path id="Vector" d="M10.9554 3C9.49904 3 8.07537 3.43187 6.86443 4.24099C5.65349 5.05011 4.70968 6.20015 4.15235 7.54567C3.59502 8.89119 3.44919 10.3718 3.73332 11.8002C4.01745 13.2286 4.71876 14.5406 5.74858 15.5704C6.77839 16.6003 8.09046 17.3016 9.51886 17.5857C10.9473 17.8698 12.4278 17.724 13.7734 17.1667C15.1189 16.6093 16.2689 15.6655 17.078 14.4546C17.8872 13.2437 18.319 11.82 18.319 10.3636C18.3189 8.41069 17.543 6.5378 16.1621 5.15688C14.7812 3.77597 12.9083 3.00012 10.9554 3Z" stroke="white" stroke-miterlimit="10"/>
<path id="Vector_2" d="M16.4492 15.8574L21.5918 21.0001" stroke="white" stroke-miterlimit="10" stroke-linecap="round"/>
</g>
</svg>
