<svg width="24" height="25" viewBox="0 0 24 25" fill="none" xmlns="http://www.w3.org/2000/svg">
<g id="viber2">
<path id="Vector" fill-rule="evenodd" clip-rule="evenodd" d="M16.676 2.71423C13.5298 2.01095 10.2672 2.01095 7.12101 2.71423L6.78201 2.78923C5.89702 2.98709 5.08421 3.42641 4.43387 4.05839C3.78353 4.69037 3.32112 5.49027 3.09801 6.36923C2.3005 9.51175 2.3005 12.8037 3.09801 15.9462C3.31078 16.7845 3.74141 17.5516 4.34624 18.1698C4.95107 18.7879 5.70859 19.2352 6.54201 19.4662L7.00701 22.2422C7.02185 22.3304 7.06005 22.4129 7.11764 22.4813C7.17523 22.5497 7.25009 22.6014 7.33443 22.631C7.41877 22.6606 7.50951 22.667 7.5972 22.6497C7.68489 22.6323 7.76632 22.5917 7.83301 22.5322L10.564 20.0892C12.6141 20.2143 14.6716 20.0504 16.676 19.6022L17.016 19.5272C17.901 19.3294 18.7138 18.89 19.3641 18.2581C20.0145 17.6261 20.4769 16.8262 20.7 15.9472C21.4974 12.8047 21.4974 9.51276 20.7 6.37023C20.4768 5.49114 20.0142 4.69116 19.3637 4.05917C18.7132 3.42717 17.9002 2.98792 17.015 2.79023L16.676 2.71423ZM7.96501 6.28823C7.77915 6.26118 7.58964 6.29858 7.42801 6.39423H7.41401C7.03901 6.61423 6.70101 6.89123 6.41301 7.21723C6.17301 7.49423 6.043 7.77423 6.00901 8.04423C5.98901 8.20423 6.00301 8.36623 6.05001 8.51923L6.06801 8.52923C6.33801 9.32223 6.69001 10.0852 7.12001 10.8032C7.67446 11.8117 8.35676 12.7444 9.15 13.5782L9.17401 13.6122L9.21201 13.6402L9.235 13.6672L9.263 13.6912C10.0997 14.4869 11.0346 15.1724 12.045 15.7312C13.2 16.3602 13.901 16.6572 14.322 16.7812V16.7872C14.445 16.8252 14.557 16.8422 14.67 16.8422C15.0285 16.8157 15.3679 16.67 15.634 16.4282C15.959 16.1402 16.234 15.8012 16.448 15.4242V15.4172C16.649 15.0372 16.581 14.6792 16.291 14.4362C15.7085 13.9273 15.0786 13.4752 14.41 13.0862C13.962 12.8432 13.507 12.9902 13.323 13.2362L12.93 13.7322C12.728 13.9782 12.362 13.9442 12.362 13.9442L12.352 13.9502C9.62101 13.2532 8.89201 10.4882 8.89201 10.4882C8.89201 10.4882 8.85801 10.1122 9.11101 9.92023L9.603 9.52423C9.839 9.33223 10.003 8.87823 9.75001 8.43023C9.36361 7.76099 8.91245 7.1313 8.40301 6.55023C8.29189 6.41347 8.13607 6.32033 7.96301 6.28723L7.96501 6.28823ZM12.579 5.08623C12.4464 5.08623 12.3192 5.13891 12.2255 5.23267C12.1317 5.32644 12.079 5.45362 12.079 5.58623C12.079 5.71884 12.1317 5.84601 12.2255 5.93978C12.3192 6.03355 12.4464 6.08623 12.579 6.08623C13.844 6.08623 14.894 6.49923 15.725 7.29123C16.152 7.72423 16.485 8.23723 16.703 8.79923C16.922 9.36223 17.022 9.96323 16.996 10.5652C16.9932 10.6309 17.0034 10.6964 17.026 10.7582C17.0486 10.8199 17.0831 10.8766 17.1276 10.9249C17.2174 11.0226 17.3424 11.0807 17.475 11.0862C17.6076 11.0918 17.737 11.0445 17.8347 10.9546C17.9324 10.8648 17.9904 10.7398 17.996 10.6072C18.027 9.86671 17.9041 9.12781 17.635 8.43723C17.3647 7.74336 16.955 7.11235 16.431 6.58323L16.421 6.57323C15.39 5.58823 14.085 5.08623 12.579 5.08623ZM12.545 6.73023C12.4124 6.73023 12.2852 6.78291 12.1915 6.87667C12.0977 6.97044 12.045 7.09762 12.045 7.23023C12.045 7.36284 12.0977 7.49001 12.1915 7.58378C12.2852 7.67755 12.4124 7.73023 12.545 7.73023H12.562C13.474 7.79523 14.138 8.09923 14.603 8.59823C15.08 9.11223 15.327 9.75123 15.308 10.5412C15.305 10.6738 15.3547 10.8022 15.4463 10.8981C15.5379 10.9941 15.6639 11.0497 15.7965 11.0527C15.9291 11.0558 16.0575 11.006 16.1534 10.9144C16.2494 10.8228 16.305 10.6968 16.308 10.5642C16.332 9.52723 15.998 8.63223 15.336 7.91823V7.91623C14.659 7.19023 13.73 6.80623 12.612 6.73123L12.595 6.72923L12.545 6.73023ZM12.526 8.40523C12.4591 8.39932 12.3917 8.40696 12.3278 8.42769C12.2639 8.44842 12.2048 8.48181 12.1541 8.52587C12.1034 8.56992 12.0621 8.62375 12.0327 8.68412C12.0032 8.7445 11.9862 8.81019 11.9827 8.87727C11.9792 8.94436 11.9893 9.01146 12.0123 9.07457C12.0353 9.13768 12.0708 9.1955 12.1167 9.24459C12.1625 9.29368 12.2178 9.33303 12.2792 9.36029C12.3406 9.38754 12.4068 9.40215 12.474 9.40323C12.892 9.42523 13.159 9.55123 13.327 9.72023C13.496 9.89023 13.622 10.1632 13.645 10.5902C13.6463 10.6573 13.661 10.7235 13.6884 10.7848C13.7157 10.846 13.7551 10.9012 13.8043 10.9469C13.8534 10.9926 13.9112 11.028 13.9743 11.0509C14.0374 11.0738 14.1044 11.0838 14.1714 11.0802C14.2385 11.0767 14.3041 11.0597 14.3644 11.0302C14.4247 11.0007 14.4784 10.9594 14.5224 10.9088C14.5664 10.8581 14.5998 10.7991 14.6205 10.7353C14.6412 10.6714 14.6489 10.6041 14.643 10.5372C14.611 9.93723 14.423 9.40723 14.038 9.01723C13.651 8.62723 13.124 8.43723 12.526 8.40523Z" fill="white"/>
</g>
</svg>
