<svg width="24" height="25" viewBox="0 0 24 25" fill="none" xmlns="http://www.w3.org/2000/svg">
<g id="youtube2">
<path id="Vector" fill-rule="evenodd" clip-rule="evenodd" d="M9.522 15.6392V8.89618L16.006 12.2792L9.522 15.6392ZM23.76 7.72718C23.76 7.72718 23.525 6.07318 22.806 5.34518C21.893 4.38918 20.87 4.38518 20.401 4.32918C17.043 4.08618 12.005 4.08618 12.005 4.08618H11.995C11.995 4.08618 6.957 4.08618 3.599 4.32918C3.129 4.38418 2.107 4.38918 1.193 5.34518C0.474 6.07318 0.24 7.72718 0.24 7.72718C0.24 7.72718 0 9.67018 0 11.6112V13.4332C0 15.3752 0.24 17.3172 0.24 17.3172C0.24 17.3172 0.474 18.9702 1.193 19.6992C2.107 20.6552 3.306 20.6252 3.84 20.7252C5.76 20.9092 12 20.9662 12 20.9662C12 20.9662 17.043 20.9592 20.401 20.7162C20.871 20.6602 21.893 20.6552 22.806 19.6992C23.526 18.9702 23.76 17.3172 23.76 17.3172C23.76 17.3172 24 15.3752 24 13.4322V11.6122C24 9.67018 23.76 7.72718 23.76 7.72718Z" fill="white"/>
</g>
</svg>
